<?xml version="1.0" encoding="utf-8"?>
<!-- Generator: Adobe Illustrator 18.0.0, SVG Export Plug-In . SVG Version: 6.00 Build 0)  -->
<!DOCTYPE svg PUBLIC "-//W3C//DTD SVG 1.1//EN" "http://www.w3.org/Graphics/SVG/1.1/DTD/svg11.dtd">
<svg version="1.1" id="Camada_1" xmlns="http://www.w3.org/2000/svg" xmlns:xlink="http://www.w3.org/1999/xlink" x="0px" y="0px"
	 viewBox="0 0 150 78" enable-background="new 0 0 150 78" xml:space="preserve">
<g>
	<path fill="#FFFFFF" d="M74.1,20.5c-10.8,0-19.6,8.7-19.6,19.6c0,10.8,8.7,19.6,19.6,19.6c10.9,0,19.6-8.7,19.6-19.6
		C93.6,29.2,84.9,20.5,74.1,20.5z M81.5,45.8c0.4,0.4,0.4,1.2-0.1,1.6c-0.4,0.5-1.1,0.6-1.5,0.2L74,41.8l-5.8,5.8
		c-0.4,0.4-1.2,0.4-1.6-0.1c-0.4-0.4-0.5-1.2-0.1-1.6l5.8-5.8l-5.7-5.6c-0.4-0.4-0.4-1.2,0.1-1.6c0.4-0.4,1.2-0.5,1.6-0.1l5.7,5.6
		l5.6-5.6c0.4-0.4,1.2-0.4,1.6,0.1c0.6,0.3,0.7,1,0.2,1.5L75.8,40L81.5,45.8z"/>
</g>
</svg>
