<?xml version="1.0" encoding="utf-8"?>
<!-- Generator: Adobe Illustrator 17.0.0, SVG Export Plug-In . SVG Version: 6.00 Build 0)  -->
<!DOCTYPE svg PUBLIC "-//W3C//DTD SVG 1.1//EN" "http://www.w3.org/Graphics/SVG/1.1/DTD/svg11.dtd">
<svg version="1.1" xmlns="http://www.w3.org/2000/svg" xmlns:xlink="http://www.w3.org/1999/xlink" x="0px" y="0px" width="100px"
	 height="100px" viewBox="0 0 100 100" enable-background="new 0 0 100 100" xml:space="preserve">
<g id="circle">
	<circle fill="#495D7E" cx="52.578" cy="50.274" r="40"/>
</g>
<defs>
	<filter id="Adobe_OpacityMaskFilter" filterUnits="userSpaceOnUse" x="31.362" y="32.042" width="42.431" height="35.64">
		<feFlood  style="flood-color:white;flood-opacity:1" result="back"/>
		<feBlend  in="SourceGraphic" in2="back" mode="normal"/>
	</filter>
</defs>
<mask maskUnits="userSpaceOnUse" x="31.362" y="32.042" width="42.431" height="35.64" id="Layer_3_1_">
	<g filter="url(#Adobe_OpacityMaskFilter)">
	</g>
</mask>
<g id="Layer_3" mask="url(#Layer_3_1_)">
	<path fill="#FFFFFF" d="M73.794,35.316c0,1.809-0.982,3.275-2.193,3.275H33.555c-1.211,0-2.193-1.466-2.193-3.275l0,0
		c0-1.809,0.982-3.275,2.193-3.275h38.046C72.812,32.042,73.794,33.508,73.794,35.316L73.794,35.316z"/>
	<path fill="#FFFFFF" d="M73.794,64.407c0,1.809-0.982,3.275-2.193,3.275H33.555c-1.211,0-2.193-1.466-2.193-3.275l0,0
		c0-1.809,0.982-3.275,2.193-3.275h38.046C72.812,61.132,73.794,62.599,73.794,64.407L73.794,64.407z"/>
	<path fill="#FFFFFF" d="M73.794,49.862c0,1.809-0.982,3.275-2.193,3.275H33.555c-1.211,0-2.193-1.466-2.193-3.275l0,0
		c0-1.809,0.982-3.275,2.193-3.275h38.046C72.812,46.587,73.794,48.053,73.794,49.862L73.794,49.862z"/>
</g>
</svg>
