<?xml version="1.0" encoding="utf-8"?>
<!-- Generator: Adobe Illustrator 17.0.0, SVG Export Plug-In . SVG Version: 6.00 Build 0)  -->
<!DOCTYPE svg PUBLIC "-//W3C//DTD SVG 1.1//EN" "http://www.w3.org/Graphics/SVG/1.1/DTD/svg11.dtd">
<svg version="1.1" xmlns="http://www.w3.org/2000/svg" xmlns:xlink="http://www.w3.org/1999/xlink" x="0px" y="0px" width="100px"
	 height="100px" viewBox="0 0 100 100" enable-background="new 0 0 100 100" xml:space="preserve">
<g id="circle">
	<circle fill="#495D7E" cx="49.578" cy="50.274" r="25.073"/>
</g>
<defs>
	<filter id="Adobe_OpacityMaskFilter" filterUnits="userSpaceOnUse" x="36.28" y="38.846" width="26.597" height="22.34">
		<feFlood  style="flood-color:white;flood-opacity:1" result="back"/>
		<feBlend  in="SourceGraphic" in2="back" mode="normal"/>
	</filter>
</defs>
<mask maskUnits="userSpaceOnUse" x="36.28" y="38.846" width="26.597" height="22.34" id="Layer_3_1_">
	<g filter="url(#Adobe_OpacityMaskFilter)">
	</g>
</mask>
<g id="Layer_3" mask="url(#Layer_3_1_)">
	<g>
		<path fill="#FFFFFF" d="M41.642,38.846h19.86c0.759,0,1.374,0.919,1.374,2.053c0,1.134-0.615,2.053-1.374,2.053H37.654
			c-0.759,0-1.374-0.919-1.374-2.053c0-0.82,0.322-1.528,0.787-1.857"/>
	</g>
	<path fill="#FFFFFF" d="M37.067,39.042c0.178-0.126,0.377-0.196,0.587-0.196h3.988"/>
	<path fill="#FFFFFF" d="M62.877,59.133c0,1.134-0.615,2.053-1.374,2.053H37.654c-0.759,0-1.374-0.919-1.374-2.053l0,0
		c0-1.134,0.615-2.053,1.374-2.053h23.848C62.261,57.08,62.877,57.999,62.877,59.133L62.877,59.133z"/>
	<path fill="#FFFFFF" d="M62.877,50.016c0,1.134-0.615,2.053-1.374,2.053H37.654c-0.759,0-1.374-0.919-1.374-2.053l0,0
		c0-1.134,0.615-2.053,1.374-2.053h23.848C62.261,47.963,62.877,48.882,62.877,50.016L62.877,50.016z"/>
</g>
</svg>
