<?xml version="1.0" encoding="utf-8"?>
<!-- Generator: Adobe Illustrator 17.0.0, SVG Export Plug-In . SVG Version: 6.00 Build 0)  -->
<!DOCTYPE svg PUBLIC "-//W3C//DTD SVG 1.1//EN" "http://www.w3.org/Graphics/SVG/1.1/DTD/svg11.dtd">
<svg version="1.1" xmlns="http://www.w3.org/2000/svg" xmlns:xlink="http://www.w3.org/1999/xlink" x="0px" y="0px" width="100px"
	 height="100px" viewBox="0 0 100 100" enable-background="new 0 0 100 100" xml:space="preserve">
<g id="Layer_2">
</g>
<g id="circle">
	<circle fill="#495D7E" cx="51.819" cy="50.274" r="40"/>
</g>
<g id="Layer_3">
	<g>
		<g>
			<path fill="#FFFFFF" d="M33.543,38.978c11.998,0,23.997,0,35.995,0c3.224,0,3.224-5,0-5c-11.998,0-23.997,0-35.995,0
				C30.318,33.978,30.318,38.978,33.543,38.978L33.543,38.978z"/>
		</g>
	</g>
	<g>
		<g>
			<path fill="#FFFFFF" d="M33.543,51.818c11.998,0,23.997,0,35.995,0c3.224,0,3.224-5,0-5c-11.998,0-23.997,0-35.995,0
				C30.318,46.818,30.318,51.818,33.543,51.818L33.543,51.818z"/>
		</g>
	</g>
	<g>
		<g>
			<path fill="#FFFFFF" d="M33.543,64.659c11.998,0,23.997,0,35.995,0c3.224,0,3.224-5,0-5c-11.998,0-23.997,0-35.995,0
				C30.318,59.659,30.318,64.659,33.543,64.659L33.543,64.659z"/>
		</g>
	</g>
</g>
</svg>
