<?xml version="1.0" encoding="utf-8"?>
<!-- Generator: Adobe Illustrator 18.0.0, SVG Export Plug-In . SVG Version: 6.00 Build 0)  -->
<!DOCTYPE svg PUBLIC "-//W3C//DTD SVG 1.1//EN" "http://www.w3.org/Graphics/SVG/1.1/DTD/svg11.dtd">
<svg version="1.1" id="Camada_1" xmlns="http://www.w3.org/2000/svg" xmlns:xlink="http://www.w3.org/1999/xlink" x="0px" y="0px"
	 viewBox="0 0 100 100" enable-background="new 0 0 100 100" xml:space="preserve">
<path fill="#FFFFFF" d="M48.9,26.3c-13.8,0-25.1,11.2-25.1,25.1c0,13.8,11.2,25.1,25.1,25.1s25.1-11.2,25.1-25.1
	C73.9,37.5,62.7,26.3,48.9,26.3z M60.8,61.9H36.9c-0.8,0-1.4-0.7-1.4-1.5c0-0.8,0.6-1.5,1.4-1.5h23.8c0.8,0,1.4,0.7,1.4,1.5
	C62.2,61.2,61.6,61.9,60.8,61.9z M60.8,52.9H36.9c-0.8,0-1.4-0.7-1.4-1.5c0-0.8,0.6-1.5,1.4-1.5h23.8c0.8,0,1.4,0.7,1.4,1.5
	C62.2,52.2,61.6,52.9,60.8,52.9z M60.8,43.9H36.9c-0.8,0-1.4-0.7-1.4-1.5c0-0.8,0.6-1.5,1.4-1.5h23.8c0.8,0,1.4,0.7,1.4,1.5
	C62.2,43.2,61.6,43.9,60.8,43.9z"/>
</svg>
